<!-- icon666.com - MILLIONS vector ICONS FREE --><svg id="Icons" viewBox="0 0 60 60" xmlns="http://www.w3.org/2000/svg"><path d="m1 18v-14a3 3 0 0 1 3-3h14.19a5 5 0 0 1 3.2 1.159l3.218 2.682a5 5 0 0 0 3.202 1.159h28.19a3 3 0 0 1 3 3v9z" fill="#e58b0a"></path><path d="m6 16v-3a3 3 0 0 1 3-3h42a3 3 0 0 1 3 3v3z" fill="#fff"></path><rect fill="#ffb90b" height="38" rx="3" width="58" x="1" y="15"></rect><circle cx="30" cy="41" fill="#3763c4" r="18" style="fill: rgb(194, 76, 76);"></circle><g fill="#fff"><path d="m37.869 34.53a8.013 8.013 0 0 1 -5.869 9.22v1.25a1 1 0 0 1 -1 1h-2a1 1 0 0 1 -1-1v-2.933a2.027 2.027 0 0 1 1.967-2.067 4 4 0 1 0 -3.967-4.153 2.138 2.138 0 0 1 -1.728 2.134 2.005 2.005 0 0 1 -2.272-1.981 8 8 0 0 1 15.869-1.47z" fill="#fff"></path><circle cx="30" cy="52" r="2" fill="#fff"></circle></g></svg>