<!-- icon666.com - MILLIONS vector ICONS FREE --><svg version="1.1" id="Capa_1" xmlns="http://www.w3.org/2000/svg" xmlns:xlink="http://www.w3.org/1999/xlink" x="0px" y="0px" viewBox="0 0 512 512" style="enable-background:new 0 0 512 512;" xml:space="preserve"><g><rect x="56" y="272" style="" width="16" height="16" fill="#4D4D4D"></rect><rect x="56" y="304" style="" width="16" height="16" fill="#4D4D4D"></rect><rect x="56" y="336" style="" width="16" height="16" fill="#4D4D4D"></rect><rect x="440" y="160" style="" width="16" height="16" fill="#4D4D4D"></rect><rect x="440" y="192" style="" width="16" height="16" fill="#4D4D4D"></rect><rect x="440" y="224" style="" width="16" height="16" fill="#4D4D4D"></rect><circle style="" cx="256" cy="256" r="96" fill="#4D4D4D"></circle></g><circle style="" cx="256" cy="256" r="56" fill="#FFFFFF"></circle><g><path style="fill: rgb(49, 86, 112);" d="M256,288c-17.648,0-32-14.352-32-32s14.352-32,32-32s32,14.352,32,32S273.648,288,256,288z M256,240 c-8.824,0-16,7.176-16,16s7.176,16,16,16s16-7.176,16-16S264.824,240,256,240z" fill="#4989B8"></path><polygon style="fill: rgb(49, 86, 112);" points="256,0 256,128 320,64 " fill="#4989B8"></polygon><path style="fill: rgb(49, 86, 112);" d="M96,256H32C32,132.488,132.488,32,256,32v64C167.776,96,96,167.776,96,256z" fill="#4989B8"></path><polygon style="fill: rgb(49, 86, 112);" points="256,384 256,512 192,448 " fill="#4989B8"></polygon><path style="fill: rgb(49, 86, 112);" d="M256,480v-64c88.224,0,160-71.776,160-160h64C480,379.512,379.512,480,256,480z" fill="#4989B8"></path></g></svg>